REM DIRINDEX 1\6,1\2\7,1\2\8,1\2\9,1\3\10,1\3\11,1\4\12,1\4\13,1\4\14,1\5\15,1\5\16,1\5\17
REM DIRNAME cjc040,folder01,folder02,folder03,folder04,folder05,folder06,folder07,folder08,folder09,folder10,folder11,folder12,folder13,folder14,folder15,folder16
TITLE ""
FILE "P2Q_t_0840-0856.mp3" MP3
  TRACK 01 AUDIO
    TITLE "6:cjc040_3334"
    INDEX 01 00:00:00
  TRACK 02 AUDIO
    TITLE "0:"
    INDEX 01 00:05:71
  TRACK 03 AUDIO
    TITLE "10:cjc040_3335"
    INDEX 01 00:07:09
  TRACK 04 AUDIO
    TITLE "0:"
    INDEX 01 00:08:13
  TRACK 05 AUDIO
    TITLE "11:cjc040_3336"
    INDEX 01 00:08:70
  TRACK 06 AUDIO
    TITLE "0:"
    INDEX 01 00:11:27
  TRACK 07 AUDIO
    TITLE "10:cjc040_3337"
    INDEX 01 00:12:12
  TRACK 08 AUDIO
    TITLE "0:"
    INDEX 01 00:13:24
  TRACK 09 AUDIO
    TITLE "11:cjc040_3338"
    INDEX 01 00:14:02
  TRACK 10 AUDIO
    TITLE "0:"
    INDEX 01 00:15:01
  TRACK 11 AUDIO
    TITLE "10:cjc040_3339"
    INDEX 01 00:15:64
  TRACK 12 AUDIO
    TITLE "0:"
    INDEX 01 00:17:12
  TRACK 13 AUDIO
    TITLE "11:cjc040_3340"
    INDEX 01 00:17:65
  TRACK 14 AUDIO
    TITLE "0:"
    INDEX 01 00:19:42
  TRACK 15 AUDIO
    TITLE "10:cjc040_3341"
    INDEX 01 00:20:22
  TRACK 16 AUDIO
    TITLE "0:"
    INDEX 01 00:21:31
  TRACK 17 AUDIO
    TITLE "11:cjc040_3342"
    INDEX 01 00:22:13
  TRACK 18 AUDIO
    TITLE "0:"
    INDEX 01 00:24:27
  TRACK 19 AUDIO
    TITLE "10:cjc040_3343"
    INDEX 01 00:25:05
  TRACK 20 AUDIO
    TITLE "0:"
    INDEX 01 00:26:24
  TRACK 21 AUDIO
    TITLE "11:cjc040_3344"
    INDEX 01 00:27:04
  TRACK 22 AUDIO
    TITLE "0:"
    INDEX 01 00:28:19
  TRACK 23 AUDIO
    TITLE "10:cjc040_3345"
    INDEX 01 00:28:74
  TRACK 24 AUDIO
    TITLE "0:"
    INDEX 01 00:30:22
  TRACK 25 AUDIO
    TITLE "11:cjc040_3346"
    INDEX 01 00:31:00
  TRACK 26 AUDIO
    TITLE "0:"
    INDEX 01 00:32:13
  TRACK 27 AUDIO
    TITLE "10:cjc040_3347"
    INDEX 01 00:32:64
  TRACK 28 AUDIO
    TITLE "0:"
    INDEX 01 00:34:00
  TRACK 29 AUDIO
    TITLE "11:cjc040_3348"
    INDEX 01 00:34:53
  TRACK 30 AUDIO
    TITLE "0:"
    INDEX 01 00:36:70
  TRACK 31 AUDIO
    TITLE "10:cjc040_3349"
    INDEX 01 00:37:46
  TRACK 32 AUDIO
    TITLE "0:"
    INDEX 01 00:38:67
  TRACK 33 AUDIO
    TITLE "11:cjc040_3350"
    INDEX 01 00:39:47
  TRACK 34 AUDIO
    TITLE "0:"
    INDEX 01 00:40:48
  TRACK 35 AUDIO
    TITLE "10:cjc040_3351"
    INDEX 01 00:41:28
  TRACK 36 AUDIO
    TITLE "0:"
    INDEX 01 00:42:57
  TRACK 37 AUDIO
    TITLE "11:cjc040_3352"
    INDEX 01 00:43:40
  TRACK 38 AUDIO
    TITLE "0:"
    INDEX 01 00:46:15
  TRACK 39 AUDIO
    TITLE "10:cjc040_3353"
    INDEX 01 00:46:68
  TRACK 40 AUDIO
    TITLE "0:"
    INDEX 01 00:47:70
  TRACK 41 AUDIO
    TITLE "11:cjc040_3354"
    INDEX 01 00:48:48
  TRACK 42 AUDIO
    TITLE "0:"
    INDEX 01 00:51:54
  TRACK 43 AUDIO
    TITLE "10:cjc040_3355"
    INDEX 01 00:52:39
  TRACK 44 AUDIO
    TITLE "0:"
    INDEX 01 00:54:03
  TRACK 45 AUDIO
    TITLE "11:cjc040_3356"
    INDEX 01 00:54:64
  TRACK 46 AUDIO
    TITLE "0:"
    INDEX 01 00:56:24
  TRACK 47 AUDIO
    TITLE "10:cjc040_3357"
    INDEX 01 00:57:05
  TRACK 48 AUDIO
    TITLE "0:"
    INDEX 01 00:58:46
  TRACK 49 AUDIO
    TITLE "11:cjc040_3358"
    INDEX 01 00:59:22
  TRACK 50 AUDIO
    TITLE "0:"
    INDEX 01 01:00:62
  TRACK 51 AUDIO
    TITLE "10:cjc040_3359"
    INDEX 01 01:01:42
  TRACK 52 AUDIO
    TITLE "0:"
    INDEX 01 01:03:00
  TRACK 53 AUDIO
    TITLE "11:cjc040_3360"
    INDEX 01 01:03:53
  TRACK 54 AUDIO
    TITLE "0:"
    INDEX 01 01:04:70
  TRACK 55 AUDIO
    TITLE "10:cjc040_3361"
    INDEX 01 01:05:50
  TRACK 56 AUDIO
    TITLE "0:"
    INDEX 01 01:06:73
  TRACK 57 AUDIO
    TITLE "11:cjc040_3362"
    INDEX 01 01:07:53
  TRACK 58 AUDIO
    TITLE "0:"
    INDEX 01 01:09:46
  TRACK 59 AUDIO
    TITLE "10:cjc040_3363"
    INDEX 01 01:10:26
  TRACK 60 AUDIO
    TITLE "0:"
    INDEX 01 01:11:58
  TRACK 61 AUDIO
    TITLE "11:cjc040_3364"
    INDEX 01 01:12:36
  TRACK 62 AUDIO
    TITLE "0:"
    INDEX 01 01:14:49
  TRACK 63 AUDIO
    TITLE "10:cjc040_3365"
    INDEX 01 01:15:19
  TRACK 64 AUDIO
    TITLE "0:"
    INDEX 01 01:16:36
  TRACK 65 AUDIO
    TITLE "11:cjc040_3366"
    INDEX 01 01:17:22
  TRACK 66 AUDIO
    TITLE "0:"
    INDEX 01 01:19:48
  TRACK 67 AUDIO
    TITLE "10:cjc040_3367"
    INDEX 01 01:20:26
  TRACK 68 AUDIO
    TITLE "0:"
    INDEX 01 01:21:49
  TRACK 69 AUDIO
    TITLE "11:cjc040_3368"
    INDEX 01 01:22:29
  TRACK 70 AUDIO
    TITLE "0:"
    INDEX 01 01:23:58
